<?xml version="1.0" encoding="utf-8"?>
<!-- Generator: Adobe Illustrator 21.0.0, SVG Export Plug-In . SVG Version: 6.00 Build 0)  -->
<!DOCTYPE svg PUBLIC "-//W3C//DTD SVG 1.1 Basic//EN" "http://www.w3.org/Graphics/SVG/1.1/DTD/svg11-basic.dtd">
<svg version="1.1" baseProfile="basic" id="Layer" xmlns="http://www.w3.org/2000/svg" xmlns:xlink="http://www.w3.org/1999/xlink"
	 x="0px" y="0px" width="500px" height="160px" viewBox="0 0 500 160" xml:space="preserve">
<style type="text/css">
	.st0{fill:#FFE18A;}
	.st1{fill:#FFFFFF;}
	.st2{fill:#FFD56C;}
	.st3{fill:#564B59;}
</style>
<g>
	<path class="st0" d="M92.0424957,20.3841209c17.5510101,35.3987122,20.4645691,37.6996841,59.9393158,43.5276833
		c1.8372803,0.2712555,2.5533142,2.5744171,1.225769,3.8731995c-28.2426071,27.630806-29.5306244,31.1128006-22.8750153,70.4564667
		c0.3097687,1.8311768-1.6593933,3.2238922-3.3048401,2.3626709c-35.0054016-18.3216705-38.7154007-18.4709091-74.0753021,0.0159912
		c-1.646122,0.8606262-3.5862045-0.5473785-3.2755089-2.3787231c6.6140175-38.9857941,5.6169624-42.5539169-22.9013176-70.4795303
		c-1.3269539-1.2993774-0.5524731-3.5835495,1.2849312-3.8539772c39.0897331-5.7532005,42.1784325-7.8131218,59.9195518-43.5548782
		C88.805809,18.6894875,91.217514,18.7202148,92.0424957,20.3841209z"/>
	<path class="st1" d="M89.0035477,118.3833694c-8.5623856-17.269516-9.9837875-18.392067-29.2418289-21.2352982
		c-0.8963318-0.1323318-1.2456551-1.2559509-0.5980072-1.8895645C72.9420776,81.7786102,73.5704498,80.079895,70.3234558,60.8857994
		c-0.151123-0.8933563,0.8095551-1.5727959,1.6122971-1.1526451c17.0776367,8.9383545,18.8875885,9.0111694,36.138176-0.0078049
		c0.8030777-0.4198647,1.7495575,0.2670403,1.5979843,1.1604805c-3.2266998,19.0195045-2.7402802,20.7602425,11.1725769,34.3839531
		c0.6473618,0.6339111,0.2695236,1.7482605-0.6268692,1.8801956c-19.0702133,2.8067398-20.5770569,3.8116837-29.232193,21.2485657
		C90.5825958,119.2101135,89.4060211,119.1951218,89.0035477,118.3833694z"/>
	<g>
		<path class="st2" d="M60.3860474,56.6254272c1.1326904,2.0497437,3.31427,3.4390869,5.8218384,3.4390869
			c3.6721802,0,6.6490479-2.9769287,6.6490479-6.6490479c0-1.7670288-0.6939697-3.3687134-1.8183594-4.5595703
			C67.9224854,52.2609863,64.5529175,54.7164307,60.3860474,56.6254272z"/>
		<path class="st2" d="M108.949585,48.8683472c-1.1174927,1.1896362-1.8068848,2.7861328-1.8068848,4.5471191
			c0,3.6723633,2.9770508,6.6494141,6.6494141,6.6494141c2.5174561,0,4.7072754-1.3994141,5.8362427-3.4623413
			C115.4282227,54.6902466,112.0524292,52.243042,108.949585,48.8683472z"/>
		<path class="st2" d="M96.6137695,127.4990234c0.0233154-0.2265015,0.0356445-0.4561768,0.0356445-0.6888428
			c0-3.6723633-2.9770508-6.6494141-6.6494141-6.6494141s-6.6494141,2.9770508-6.6494141,6.6494141
			c0,0.2412109,0.0144043,0.4788818,0.0394287,0.7134399C87.9265747,126.5949707,92.1068115,126.5891724,96.6137695,127.4990234z"/>
		<path class="st2" d="M52.7468262,105.2241211c2.9733887-0.6629639,5.1977539-3.3125,5.1977539-6.4856567
			c0-3.6723633-2.9770508-6.6494141-6.6494141-6.6494141c-0.9486084,0-1.848999,0.2017822-2.6654663,0.5596924
			C50.9186401,96.6789551,52.2180786,100.654541,52.7468262,105.2241211z"/>
		<path class="st2" d="M128.704834,92.0890503c-3.6723633,0-6.6494141,2.9770508-6.6494141,6.6494141
			c0,3.1842651,2.239563,5.8424072,5.2285767,6.4935913c0.5205078-4.6032104,1.8095093-8.5823364,4.0720215-12.5901489
			C130.543396,92.2879639,129.6478271,92.0890503,128.704834,92.0890503z"/>
	</g>
</g>
<g>
	<path class="st3" d="M228.5717773,105.0107422l-14.3676758-34.4199219
		c-0.1162109-0.2788086-0.3891602-0.4609375-0.6914063-0.4609375h-0.0004883c-0.3022461,0-0.574707,0.1811523-0.6918945,0.4599609
		l-6.6401367,15.8408203c-0.0771484,0.1845703-0.0776367,0.3925781-0.0004883,0.578125l7.4882813,18.0019531h-2.7768555
		l-5.5673828-13.3007813C205.2070313,91.4316406,204.934082,91.25,204.6318359,91.25s-0.5751953,0.1816406-0.6918945,0.4599609
		l-5.5673828,13.3007813h-2.6928711l7.4833984-17.8398438c0.0776367-0.1845703,0.078125-0.3925781,0.0014648-0.5771484
		l-6.6401367-16.0014648c-0.1162109-0.2792969-0.3886719-0.4619141-0.6914063-0.4624023c-0.0004883,0-0.0009766,0-0.0014648,0
		c-0.3022461,0-0.574707,0.1811523-0.6914063,0.4599609l-14.4472656,34.4208984H178l17.9086914-42.5888672l8.1108398,19.4667969
		c0.1162109,0.2792969,0.3886719,0.4609375,0.6914063,0.4619141c0,0,0.0004883,0,0.0009766,0
		c0.3017578,0,0.5742188-0.1806641,0.6914063-0.4589844l8.1855469-19.4702148l17.7583008,42.5893555H228.5717773z"/>
	<path class="st3" d="M240.0200195,105.0107422v-2.5h3.2504883c0.4140625,0,0.75-0.3359375,0.75-0.75V78.9599609
		c0-0.7011719,0.5488281-1.25,1.25-1.25s1.25,0.5488281,1.25,1.25v22.8007813c0,0.4140625,0.3359375,0.75,0.75,0.75h3.25v2.5
		H240.0200195z M245.2705078,67.8100586c-1.3510742,0-2.4501953-1.0991211-2.4501953-2.4501953
		s1.0991211-2.4501953,2.4501953-2.4501953c1.3505859,0,2.449707,1.0991211,2.449707,2.4501953
		S246.6210938,67.8100586,245.2705078,67.8100586z"/>
	<path class="st3" d="M264.0200195,105.0107422V79.3100586h2.5v1.8100586c0,0.2714844,0.1469727,0.5224609,0.3847656,0.6552734
		c0.1137695,0.0634766,0.2397461,0.0947266,0.3652344,0.0947266c0.1367188,0,0.2734375-0.0371094,0.394043-0.1123047
		c3.0595703-1.8896484,5.8339844-2.8476563,8.2460938-2.8476563c4.4042969,0,6.9301758,2.4677734,6.9301758,6.7705078
		c0,0.7011719-0.5488281,1.25-1.25,1.25c-0.7006836,0-1.25-0.5488281-1.25-1.25
		c0-2.0566406-1.3862305-4.2705078-4.4301758-4.2705078c-2.609375,0-5.5830078,1.2792969-9.090332,3.9111328
		c-0.1884766,0.1416016-0.2998047,0.3632813-0.2998047,0.5996094v19.0898438H264.0200195z"/>
	<path class="st3" d="M305.6870117,103.3789063c-0.1254883-0.0849609-0.2714844-0.1279297-0.418457-0.1279297
		c-0.1035156,0-0.2070313,0.0214844-0.3046875,0.0644531l-0.4267578,0.1914063
		c-1.4458008,0.6523438-3.8657227,1.7441406-5.6689453,1.7441406c-4.15625,0-9.0097656-1.6474609-9.0097656-6.2900391
		c0-4.6054688,4.9306641-7.0908203,9.5703125-7.0908203c1.8842773,0,3.9130859,0.3125,6.0302734,0.9296875
		c0.0688477,0.0205078,0.1396484,0.0302734,0.2099609,0.0302734c0.1606445,0,0.3188477-0.0517578,0.4501953-0.1503906
		c0.1884766-0.1416016,0.2998047-0.3632813,0.2998047-0.5996094v-9.5195313c0-0.4140625-0.3359375-0.75-0.75-0.75h-12
		c-0.7011719,0-1.25-0.5493164-1.25-1.25c0-0.7011719,0.5488281-1.2504883,1.25-1.2504883h15.25v26.2426758L305.6870117,103.3789063
		z M299.4287109,94.3701172c-3.2617188,0-7.0703125,1.2021484-7.0703125,4.5908203
		c0,1.4150391,0.8457031,3.7900391,6.5097656,3.7900391c1.7993164,0,4.878418-1.3945313,7.1445313-2.5644531
		c0.2495117-0.1279297,0.40625-0.3857422,0.40625-0.6660156v-3.2802734c0-0.3232422-0.206543-0.609375-0.5131836-0.7119141
		C303.6958008,94.7919922,301.3349609,94.3701172,299.4287109,94.3701172z"/>
	<path class="st3" d="M343.3481445,105.6503906c-0.2275391,0-0.4482422-0.0634766-0.5898438-0.1699219
		c-4.0810547-2.4384766-7.2109375-5.7480469-9.6337891-10.1611328c-0.1347656-0.2451172-0.3896484-0.3886719-0.6572266-0.3886719
		c-0.0761719,0-0.1533203,0.0117188-0.2285156,0.0361328c-1.3066406,0.4179688-2.6005859,0.6298828-3.8447266,0.6298828
		c-0.4853516,0-0.9628906-0.0332031-1.4199219-0.0986328c-0.0361328-0.0048828-0.0712891-0.0078125-0.1064453-0.0078125
		c-0.1796875,0-0.3544922,0.0644531-0.4912109,0.1835938c-0.1640625,0.1425781-0.2587891,0.3486328-0.2587891,0.5664063v8.7705078
		h-2.5V54.3496094h2.5v27.3310547c0,0.2822266,0.1591797,0.5410156,0.4111328,0.6689453
		c0.1074219,0.0546875,0.2226563,0.0810547,0.3388672,0.0810547c0.15625,0,0.3125-0.0488281,0.4433594-0.1455078
		c2.1484375-1.5761719,5.6757813-3.4550781,10.2763672-3.4550781c5.6044922,0,6.2099609,2.8886719,6.2099609,4.1308594
		c0,2.4023438-2.1142578,7.171875-7.9394531,10.4667969c-0.3574219,0.2011719-0.4853516,0.6533203-0.2890625,1.0126953
		c2.0722656,3.78125,4.828125,6.6992188,8.4257813,8.9189453c0.5625,0.3134766,0.6035156,0.8759766,0.6035156,1.0410156
		C344.5981445,105.1015625,344.0493164,105.6503906,343.3481445,105.6503906z M336.8676758,80.8505859
		c-4.3564453,0-9.1103516,3.4082031-10.5742188,5.1464844c-0.1132813,0.1357422-0.1757813,0.3066406-0.1757813,0.4833984v5.9199219
		c0,0.3066406,0.1865234,0.5820313,0.4707031,0.6962891c0.4736328,0.1894531,1.1123047,0.2939453,1.7988281,0.2939453
		c5.7197266,0,12.75-5.265625,12.75-9.5498047C341.137207,81.96875,339.5415039,80.8505859,336.8676758,80.8505859z"/>
	<path class="st3" d="M364.5473633,105.4111328c-5.1445313,0-9.3300781-4.1855469-9.3300781-9.3310547V80.1601563
		c0-0.7011719,0.5488281-1.25,1.25-1.25s1.25,0.5488281,1.25,1.25v15.9199219c0,3.7666016,3.0634766,6.8310547,6.8300781,6.8310547
		s6.8300781-3.0644531,6.8300781-6.8310547V80.1601563c0-0.7011719,0.5488281-1.25,1.25-1.25s1.25,0.5488281,1.25,1.25v15.9199219
		C373.8774414,101.2255859,369.6918945,105.4111328,364.5473633,105.4111328z"/>
	<path class="st3" d="M388.1772461,105.0107422V79.3100586h2.5v1.8100586c0,0.2714844,0.1474609,0.5224609,0.3847656,0.6552734
		c0.1132813,0.0634766,0.2392578,0.0947266,0.3652344,0.0947266c0.1367188,0,0.2734375-0.0371094,0.3945313-0.1123047
		c3.0585938-1.8896484,5.8330078-2.8476563,8.2451172-2.8476563c4.4042969,0,6.9306641,2.4677734,6.9306641,6.7705078
		c0,0.7011719-0.5488281,1.25-1.25,1.25s-1.25-0.5488281-1.25-1.25c0-2.0566406-1.3867188-4.2705078-4.4306641-4.2705078
		c-2.6103516,0-5.5830078,1.2792969-9.0898438,3.9111328c-0.1884766,0.1416016-0.2998047,0.3632813-0.2998047,0.5996094v19.0898438
		H388.1772461z"/>
	<path class="st3" d="M425.5053711,105.4111328c-5.1445313,0-9.3300781-4.1855469-9.3300781-9.3310547V80.1601563
		c0-0.7011719,0.5488281-1.25,1.25-1.25s1.25,0.5488281,1.25,1.25v15.9199219c0,3.7666016,3.0634766,6.8310547,6.8300781,6.8310547
		s6.8300781-3.0644531,6.8300781-6.8310547V80.1601563c0-0.7011719,0.5488281-1.25,1.25-1.25s1.25,0.5488281,1.25,1.25v15.9199219
		C434.8354492,101.2255859,430.6499023,105.4111328,425.5053711,105.4111328z"/>
	<path class="st3" d="M466.5454102,105.4111328c-0.7011719,0-1.25-0.5488281-1.25-1.25V88.2402344
		c0-3.7021484-3.1279297-6.8300781-6.8300781-6.8300781s-6.8300781,3.1279297-6.8300781,6.8300781v16.7705078h-2.5V79.5712891
		l1.9189453,1.9189453c0.140625,0.140625,0.3310547,0.2197266,0.5302734,0.2197266c0.0029297,0,0.0048828,0,0.0078125,0
		c0.2011719-0.0019531,0.3935547-0.0849609,0.5332031-0.2304688c1.5449219-1.6088867,3.9150391-2.5693359,6.3398438-2.5693359
		c5.1445313,0,9.3300781,4.1855469,9.3300781,9.3300781v15.9208984
		C467.7954102,104.8623047,467.246582,105.4111328,466.5454102,105.4111328z"/>
</g>
</svg>
